<?xml version="1.0" standalone="no"?>
<!DOCTYPE svg PUBLIC "-//W3C//DTD SVG 20010904//EN"
 "http://www.w3.org/TR/2001/REC-SVG-20010904/DTD/svg10.dtd">
<svg version="1.0" xmlns="http://www.w3.org/2000/svg"
 width="768.000000pt" height="762.000000pt" viewBox="0 0 768.000000 762.000000"
 preserveAspectRatio="xMidYMid meet">
<metadata>
Created by potrace 1.15, written by Peter Selinger 2001-2017
</metadata>
<g transform="translate(0.000000,762.000000) scale(0.100000,-0.100000)"
fill="#000000" stroke="none">
<path d="M3717 7170 c-127 -220 -141 -240 -166 -240 -22 0 -56 34 -206 205
-99 113 -183 205 -186 205 -4 0 -47 -117 -95 -260 -82 -238 -91 -260 -116
-269 -25 -9 -43 3 -248 161 -122 94 -222 169 -224 167 -1 -2 -17 -119 -35
-259 -39 -305 -37 -295 -65 -308 -19 -8 -60 8 -274 113 -226 111 -252 121
-251 102 0 -12 8 -137 18 -277 18 -252 18 -255 -2 -272 -10 -10 -25 -18 -32
-18 -7 0 -129 31 -271 69 -142 39 -259 69 -260 68 -2 -1 29 -117 67 -257 37
-140 69 -264 69 -276 0 -11 -8 -28 -17 -36 -16 -14 -43 -14 -283 3 -146 10
-271 18 -278 19 -7 0 21 -66 64 -152 42 -84 98 -199 125 -256 l48 -104 -22
-22 c-19 -19 -52 -26 -287 -55 -146 -19 -267 -35 -269 -37 -1 -1 72 -100 163
-219 156 -204 178 -242 158 -271 -4 -5 -123 -50 -264 -98 -142 -49 -258 -91
-258 -95 0 -4 92 -87 205 -185 174 -152 205 -183 205 -207 0 -25 -18 -38 -240
-166 -132 -76 -240 -141 -240 -145 0 -3 108 -68 240 -144 219 -127 240 -141
240 -165 0 -23 -33 -56 -197 -201 -108 -95 -203 -178 -211 -184 -11 -8 46 -31
244 -98 143 -48 265 -93 271 -98 31 -25 11 -61 -152 -275 -91 -119 -164 -217
-163 -219 2 -1 111 -17 243 -34 316 -40 303 -38 319 -68 13 -24 6 -40 -107
-269 -66 -134 -117 -246 -114 -250 4 -3 129 2 278 11 263 18 271 18 284 0 8
-11 14 -26 15 -34 0 -8 -31 -130 -69 -270 -37 -140 -67 -256 -66 -258 2 -2
122 29 268 68 252 68 266 71 290 56 21 -14 24 -22 20 -64 -13 -177 -33 -505
-30 -508 2 -2 113 50 247 117 250 123 278 132 298 91 5 -9 24 -135 43 -280 23
-182 37 -261 45 -258 6 2 98 71 205 154 242 186 231 179 262 165 22 -10 37
-47 112 -272 48 -144 88 -261 91 -261 2 0 85 93 186 208 167 190 185 207 212
204 17 -1 31 -4 31 -5 1 -1 62 -107 136 -235 73 -127 137 -231 142 -229 5 1
67 104 139 227 71 124 133 228 136 232 4 4 18 9 32 13 24 6 42 -13 210 -205
126 -145 186 -206 192 -198 4 7 44 123 89 258 45 135 84 248 88 252 3 4 17 9
31 13 22 5 56 -17 230 -151 113 -86 211 -161 218 -167 7 -5 14 -8 16 -6 3 2
21 126 41 274 36 273 42 295 81 295 6 0 122 -54 258 -119 244 -119 246 -120
246 -93 0 15 -7 139 -16 275 l-17 249 21 21 21 20 267 -71 c147 -40 269 -70
271 -69 2 2 -29 124 -68 271 l-72 267 20 21 21 20 271 -17 c150 -9 274 -15
276 -13 2 2 -50 113 -116 247 -65 134 -119 249 -119 255 0 40 21 46 295 82
148 19 271 37 274 39 3 4 -22 38 -242 325 -73 95 -87 119 -82 140 4 14 9 28
13 31 4 3 117 43 252 89 135 45 251 86 258 89 8 5 -62 72 -198 191 -115 101
-210 187 -210 191 0 38 31 62 254 189 197 113 233 137 220 147 -9 6 -114 69
-235 138 -208 121 -244 148 -237 179 2 8 97 96 211 196 114 100 206 184 205
185 -2 2 -118 42 -258 89 -142 48 -261 94 -267 103 -7 9 -13 24 -13 32 0 9 75
113 165 231 91 118 165 218 165 221 0 3 -116 20 -257 38 -142 18 -268 36 -280
41 -48 20 -41 45 87 300 67 133 119 244 117 246 -2 3 -107 -2 -233 -11 -126
-8 -252 -15 -280 -15 -86 0 -86 2 -4 309 39 145 69 265 68 267 -2 1 -118 -29
-258 -67 -140 -38 -262 -69 -270 -68 -8 0 -24 6 -34 14 -19 14 -19 20 -3 272
10 142 17 268 17 281 0 20 -20 12 -248 -102 -235 -118 -249 -123 -274 -110
-30 16 -26 -5 -69 324 -17 129 -32 236 -34 238 -1 2 -100 -71 -219 -162 -119
-91 -224 -166 -234 -166 -10 0 -25 6 -34 13 -8 6 -55 128 -103 270 -49 142
-91 254 -95 250 -4 -4 -87 -99 -184 -210 -185 -211 -204 -225 -238 -185 -8 9
-72 117 -142 240 -71 122 -131 222 -134 222 -4 0 -69 -108 -145 -240z m417
-685 c441 -47 856 -194 1205 -427 227 -152 445 -347 606 -543 315 -386 511
-827 586 -1319 30 -193 36 -511 15 -696 -82 -705 -420 -1330 -962 -1781 -335
-279 -762 -484 -1183 -568 -286 -58 -687 -66 -966 -22 -848 137 -1577 665
-1974 1432 -143 275 -229 548 -278 874 -24 164 -24 582 0 738 105 677 431
1265 942 1694 554 466 1295 694 2009 618z"/>
<path d="M3459 5856 c-87 -35 -122 -61 -201 -145 -82 -88 -124 -152 -175 -273
-92 -213 -193 -315 -400 -403 -62 -26 -113 -51 -113 -54 0 -14 60 -202 71
-223 51 -98 137 -149 260 -156 103 -6 174 9 312 65 383 156 513 182 942 193
171 4 326 12 345 17 113 31 204 101 240 184 23 55 28 139 15 261 l-7 65 -129
6 c-216 10 -311 53 -514 231 -255 224 -475 303 -646 232z m244 -247 c24 -6 60
-31 95 -65 l56 -54 82 56 c82 56 116 65 122 31 5 -25 -10 -40 -108 -108 -66
-46 -89 -68 -99 -95 -13 -36 -11 -42 26 -81 6 -7 13 -17 15 -22 1 -6 46 -19
98 -31 118 -25 140 -35 140 -59 0 -40 -20 -41 -150 -12 -69 15 -129 26 -134
23 -5 -3 -6 -28 -3 -56 7 -69 -3 -97 -42 -123 -51 -35 -68 -30 -78 18 -10 50
-33 70 -58 49 -13 -11 -15 -24 -10 -62 l7 -48 -37 0 c-51 0 -90 23 -104 62 -7
18 -19 48 -27 66 l-14 32 -52 -34 c-29 -19 -78 -51 -108 -71 -63 -41 -94 -42
-97 -5 -3 21 11 34 94 90 57 39 98 73 101 85 15 76 14 81 -16 107 -20 17 -62
33 -124 48 -110 26 -128 35 -128 59 0 38 21 41 120 16 52 -14 96 -25 97 -25 2
0 16 28 32 63 15 34 44 77 63 95 57 54 156 75 241 51z"/>
<path d="M5155 4935 c-24 -23 -25 -28 -25 -172 0 -81 -4 -154 -8 -161 -6 -9
-22 2 -57 40 -165 179 -196 208 -225 208 -45 0 -66 -36 -81 -138 -18 -123 -15
-359 4 -450 34 -153 104 -260 207 -314 40 -20 59 -23 164 -23 l120 0 28 -62
c76 -162 113 -318 106 -442 -8 -132 -72 -213 -198 -252 l-65 -20 -15 23 c-112
168 -362 340 -618 424 l-82 27 0 38 c0 34 3 39 34 49 62 20 122 75 155 141 73
146 17 325 -123 396 -37 19 -71 27 -126 31 -70 4 -79 2 -140 -30 -77 -40 -123
-95 -146 -175 -41 -141 28 -297 156 -352 27 -12 52 -26 56 -32 15 -25 -16 -29
-147 -20 -155 11 -355 1 -474 -25 -115 -25 -127 -24 -139 9 -13 35 -3 44 62
57 149 28 245 142 244 290 -1 156 -112 275 -268 288 -199 16 -356 -178 -300
-370 18 -63 65 -133 106 -156 25 -15 28 -21 26 -67 0 -27 2 -66 7 -86 l7 -36
-106 -52 c-191 -92 -332 -203 -434 -341 -114 -154 -283 -201 -443 -122 -56 28
-197 142 -197 160 0 4 27 15 59 24 197 58 274 254 207 522 -36 141 -117 323
-183 414 -23 31 -51 40 -86 26 -9 -3 -38 -71 -68 -157 -28 -84 -55 -155 -59
-160 -3 -4 -38 61 -77 145 -78 168 -103 199 -150 182 -58 -19 -187 -330 -214
-513 -40 -284 79 -459 327 -478 72 -6 72 -6 108 -53 72 -95 179 -186 272 -232
l87 -43 121 0 121 0 84 42 83 43 39 -43 c21 -23 38 -47 39 -54 0 -6 -15 -21
-34 -32 -49 -30 -121 -111 -149 -168 -55 -108 -76 -273 -39 -306 10 -10 31
-17 45 -17 43 0 63 29 70 102 12 129 75 237 173 294 44 26 72 26 94 0 8 -11 4
-25 -19 -63 -86 -142 -92 -315 -15 -477 41 -87 89 -109 134 -62 26 29 25 41
-16 136 -52 123 -40 258 29 344 l24 29 47 -19 c38 -16 46 -23 41 -39 -34 -121
-29 -253 15 -369 40 -105 98 -135 143 -74 l20 27 -27 68 c-36 92 -47 168 -35
245 6 34 12 64 14 66 2 2 25 -3 52 -12 296 -98 716 -93 1020 14 49 17 95 33
104 36 25 9 60 -85 66 -176 5 -61 1 -92 -17 -153 -21 -72 -22 -78 -6 -102 20
-30 74 -35 98 -7 45 50 71 236 49 342 -6 30 -22 80 -35 112 l-23 56 38 21 c35
20 40 21 62 6 13 -8 37 -34 54 -58 62 -86 78 -189 46 -302 -9 -33 -17 -78 -17
-100 -1 -33 3 -42 27 -55 24 -13 30 -13 55 0 50 29 83 132 83 265 0 129 -36
225 -120 318 -33 36 -33 38 -16 57 21 23 45 20 121 -16 92 -43 158 -132 189
-255 24 -96 75 -127 125 -74 23 24 23 27 11 96 -28 153 -130 294 -258 357 -29
14 -53 29 -53 32 0 3 10 17 23 33 15 19 40 32 82 43 129 33 208 84 263 172 45
70 62 141 62 255 0 137 -34 269 -114 450 -14 32 -26 61 -26 65 0 4 24 20 53
35 109 57 182 159 194 270 15 147 -97 357 -303 564 -112 113 -135 123 -179 78z
m-1555 -788 c103 -76 115 -174 32 -258 -51 -51 -105 -59 -169 -27 -55 27 -81
59 -89 110 -14 83 27 157 101 183 42 15 99 12 125 -8z m826 -18 c74 -36 110
-122 79 -195 -30 -72 -78 -106 -151 -106 -147 0 -209 197 -90 287 53 40 101
44 162 14z m-697 -954 c31 -30 84 -67 117 -82 53 -25 70 -28 159 -27 101 0
187 15 236 40 15 7 44 32 65 54 33 35 44 40 74 38 43 -4 63 -36 48 -79 -15
-43 -101 -115 -166 -140 -62 -23 -210 -49 -282 -49 -113 0 -240 51 -322 128
-64 60 -82 93 -67 125 11 25 41 45 67 46 8 1 39 -24 71 -54z"/>
</g>
</svg>
